<?xml version="1.0" standalone="no"?>
<!DOCTYPE svg PUBLIC "-//W3C//DTD SVG 20010904//EN"
 "http://www.w3.org/TR/2001/REC-SVG-20010904/DTD/svg10.dtd">
<svg version="1.0" xmlns="http://www.w3.org/2000/svg"
 width="284.000000pt" height="284.000000pt" viewBox="0 0 284.000000 284.000000"
 preserveAspectRatio="xMidYMid meet">
<metadata>
Created by potrace 1.11, written by Peter Selinger 2001-2013
</metadata>
<g transform="translate(0.000000,284.000000) scale(0.100000,-0.100000)"
fill="#000000" stroke="none">
<path d="M0 1420 l0 -1420 1420 0 1420 0 0 1420 0 1420 -1420 0 -1420 0 0
-1420z m1313 880 c357 -75 632 -214 837 -419 52 -53 110 -121 128 -153 60
-101 51 -195 -22 -243 -56 -37 -194 -15 -301 48 -73 43 -321 161 -390 185
-105 37 -254 72 -379 87 -227 29 -249 33 -314 67 -72 36 -155 106 -177 149
-20 37 -19 113 1 156 33 68 90 111 186 138 73 21 300 13 431 -15z m-1011
-1052 l3 -93 65 0 65 0 3 93 3 92 44 0 45 0 0 -230 0 -230 -45 0 -44 0 -3 98
-3 97 -67 3 -68 3 0 -101 0 -100 -45 0 -45 0 0 230 0 230 45 0 44 0 3 -92z
m1028 76 c70 -28 95 -124 46 -180 l-23 -28 26 -22 c22 -19 26 -30 26 -77 0
-104 -55 -140 -204 -135 l-86 3 -3 228 -2 227 90 0 c59 0 103 -5 130 -16z
m-310 -64 c0 -33 3 -40 20 -40 16 0 20 -7 20 -35 0 -29 -4 -35 -20 -35 -20 0
-21 -5 -18 -97 3 -93 4 -98 26 -101 22 -3 28 -24 16 -56 -10 -26 -80 -21 -109
9 -24 23 -25 31 -25 135 0 103 -1 110 -20 110 -16 0 -20 7 -20 35 0 28 4 35
20 35 17 0 20 7 20 40 l0 40 45 0 45 0 0 -40z m-221 -57 c41 -30 61 -80 61
-151 0 -113 -36 -163 -125 -170 -63 -5 -94 10 -125 61 -27 44 -28 168 -2 216
37 68 129 89 191 44z m856 11 c40 -19 62 -61 71 -137 l7 -57 -92 0 c-99 0
-112 -9 -71 -50 24 -24 39 -25 85 -6 32 14 34 13 49 -9 21 -32 21 -32 -16 -55
-73 -44 -184 -15 -214 55 -17 40 -19 142 -3 182 30 81 108 113 184 77z m327
-23 c27 -30 28 -35 28 -140 0 -60 3 -123 6 -140 l7 -31 -46 0 c-27 0 -47 5
-50 13 -4 10 -7 10 -18 0 -18 -18 -80 -16 -106 2 -13 9 -27 33 -34 53 -22 76
33 142 121 142 26 0 30 3 30 29 0 38 -29 50 -52 22 -11 -15 -28 -21 -57 -21
-45 0 -48 7 -25 51 34 66 145 77 196 20z m291 28 c44 -20 51 -45 55 -196 l4
-143 -46 0 -46 0 0 109 c0 120 -10 161 -38 161 -36 0 -42 -20 -42 -147 l0
-123 -45 0 -45 0 0 170 0 170 45 0 c25 0 45 -5 45 -10 0 -6 12 -4 28 4 33 18
53 19 85 5z m318 -25 c16 -15 29 -38 29 -51 0 -21 -5 -23 -44 -23 -36 0 -45 4
-49 21 -7 28 -52 23 -52 -6 0 -14 17 -29 59 -52 73 -38 86 -55 86 -109 0 -59
-41 -94 -111 -94 -64 0 -107 22 -125 65 -8 19 -14 37 -14 40 0 3 20 5 45 5 33
0 45 -4 45 -15 0 -22 36 -38 60 -25 37 20 24 38 -56 78 -81 41 -100 82 -68
143 33 64 139 76 195 23z"/>
<path d="M1210 1205 l0 -55 34 0 c40 0 66 22 66 55 0 33 -26 55 -66 55 l-34 0
0 -55z"/>
<path d="M1210 1020 l0 -60 38 0 c47 0 62 14 62 60 0 46 -15 60 -62 60 l-38 0
0 -60z"/>
<path d="M690 1131 c-16 -32 -13 -147 6 -165 39 -40 74 1 74 87 0 70 -12 97
-45 97 -14 0 -29 -8 -35 -19z"/>
<path d="M1560 1131 c-18 -34 -11 -41 35 -41 25 0 45 2 45 4 0 3 -4 16 -10 30
-12 32 -54 36 -70 7z"/>
<path d="M1883 1030 c-18 -7 -23 -17 -23 -45 0 -34 2 -36 28 -33 24 3 27 7 30
46 3 44 1 46 -35 32z"/>
</g>
</svg>
